<svg width="191" height="47" viewBox="0 0 191 47" fill="none" xmlns="http://www.w3.org/2000/svg">
<path d="M0.938989 1.92263C-2.38802 0.0117966 4.59397 1.1215 4.59397 1.1215L12.5522 38.6482L8.86272 39.7316C8.86272 39.7316 4.26599 3.83346 0.938989 1.92263Z" fill="#FED700"/>
<path d="M8.51709 34.6544C11.5934 27.8801 20.0939 43.6552 46.0001 34.6544V41.5708L12.1601 40.3865L8.51709 34.6544Z" fill="#FED700"/>
<path d="M16.7785 40.3483C16.7785 41.6703 15.7308 42.6995 14.4903 42.6995C13.2499 42.6995 12.2021 41.6703 12.2021 40.3483C12.2021 39.0263 13.2499 37.9971 14.4903 37.9971C15.7308 37.9971 16.7785 39.0263 16.7785 40.3483Z" fill="white" stroke="#3A5585" stroke-width="3"/>
<path d="M43.5602 40.2248C43.5602 41.5468 42.5125 42.576 41.2721 42.576C40.0316 42.576 38.9839 41.5468 38.9839 40.2248C38.9839 38.9028 40.0316 37.8735 41.2721 37.8735C42.5125 37.8735 43.5602 38.9028 43.5602 40.2248Z" fill="white" stroke="#3A5585" stroke-width="3"/>
<rect x="24.0703" y="9.09521" width="8.49484" height="5.27487" fill="#FED700"/>
<rect x="25.3984" y="18.3623" width="7.16752" height="5.27487" fill="#FED700"/>
<rect x="24.0703" y="27.6289" width="8.49484" height="5.27487" fill="#FED700"/>
<path d="M33.738 32.9035C35.1934 32.9162 36.6368 32.6208 37.986 32.0343C39.3351 31.4477 40.5635 30.5815 41.6009 29.4851C42.6384 28.3887 43.4646 27.0835 44.0324 25.6441C44.6003 24.2047 44.8986 22.6593 44.9104 21.0961C44.9221 19.5329 44.6471 17.9825 44.101 16.5334C43.555 15.0843 42.7485 13.765 41.7277 12.6507C40.7069 11.5364 39.4917 10.649 38.1516 10.0391C36.8115 9.42916 35.3727 9.10874 33.9173 9.0961L33.8662 15.8761C34.4926 15.8815 35.112 16.0195 35.6888 16.282C36.2656 16.5445 36.7886 16.9265 37.228 17.4061C37.6674 17.8857 38.0145 18.4536 38.2496 19.0773C38.4846 19.7011 38.603 20.3684 38.5979 21.0413C38.5929 21.7141 38.4645 22.3793 38.2201 22.9989C37.9756 23.6184 37.62 24.1802 37.1735 24.6521C36.7269 25.1241 36.1982 25.4969 35.6175 25.7494C35.0368 26.0018 34.4155 26.129 33.789 26.1235L33.738 32.9035Z" fill="#3A5585"/>
<rect x="20" y="9.09521" width="4.11469" height="23.8082" fill="#FED700"/>
<path d="M56.0036 41V20.6364H69.7252V24.1861H60.309V29.0384H69.0192V32.5881H60.309V37.4503H69.7649V41H56.0036ZM77.4237 41.2884C76.4492 41.2884 75.5809 41.1193 74.8185 40.7812C74.0562 40.4366 73.453 39.9295 73.0089 39.2599C72.5714 38.5838 72.3526 37.742 72.3526 36.7344C72.3526 35.8859 72.5084 35.1733 72.82 34.5966C73.1315 34.0199 73.5558 33.5559 74.0927 33.2045C74.6296 32.8532 75.2395 32.5881 75.9222 32.4091C76.6116 32.2301 77.3342 32.1042 78.0899 32.0312C78.9781 31.9384 79.694 31.8523 80.2376 31.7727C80.7811 31.6866 81.1756 31.5606 81.4208 31.3949C81.6661 31.2292 81.7887 30.9839 81.7887 30.6591V30.5994C81.7887 29.9697 81.5899 29.4825 81.1921 29.1378C80.801 28.7931 80.2442 28.6207 79.5217 28.6207C78.7594 28.6207 78.1528 28.7898 77.7021 29.1278C77.2513 29.4593 76.953 29.8769 76.8072 30.3807L72.8896 30.0625C73.0884 29.1345 73.4795 28.3324 74.0629 27.6562C74.6462 26.9735 75.3986 26.4498 76.32 26.0852C77.248 25.714 78.3219 25.5284 79.5416 25.5284C80.39 25.5284 81.2021 25.6278 81.9776 25.8267C82.7598 26.0256 83.4525 26.3338 84.0558 26.7514C84.6656 27.169 85.1462 27.706 85.4975 28.3622C85.8488 29.0118 86.0245 29.7907 86.0245 30.6989V41H82.0075V38.8821H81.8881C81.6429 39.3594 81.3148 39.7803 80.9038 40.1449C80.4928 40.5028 79.9989 40.7846 79.4222 40.9901C78.8455 41.1889 78.1793 41.2884 77.4237 41.2884ZM78.6367 38.3651C79.2598 38.3651 79.81 38.2424 80.2873 37.9972C80.7646 37.7453 81.1391 37.4072 81.4109 36.983C81.6827 36.5587 81.8185 36.0781 81.8185 35.5412V33.9205C81.686 34.0066 81.5037 34.0862 81.2717 34.1591C81.0463 34.2254 80.7911 34.2884 80.506 34.348C80.221 34.401 79.936 34.4508 79.6509 34.4972C79.3659 34.5369 79.1074 34.5734 78.8754 34.6065C78.3782 34.6795 77.944 34.7955 77.5728 34.9545C77.2016 35.1136 76.9132 35.3291 76.7078 35.6009C76.5023 35.866 76.3995 36.1974 76.3995 36.5952C76.3995 37.1719 76.6083 37.6127 77.0259 37.9176C77.4502 38.2159 77.9871 38.3651 78.6367 38.3651ZM102.018 30.0824L98.1403 30.321C98.074 29.9896 97.9315 29.6913 97.7127 29.4261C97.494 29.1544 97.2056 28.9389 96.8477 28.7798C96.4963 28.6141 96.0754 28.5312 95.5849 28.5312C94.9286 28.5312 94.3751 28.6705 93.9244 28.9489C93.4736 29.2206 93.2482 29.5852 93.2482 30.0426C93.2482 30.4072 93.3941 30.7154 93.6857 30.9673C93.9774 31.2192 94.4779 31.4214 95.1872 31.5739L97.9514 32.1307C99.4362 32.4356 100.543 32.9261 101.272 33.6023C102.002 34.2784 102.366 35.1667 102.366 36.267C102.366 37.268 102.071 38.1463 101.481 38.902C100.898 39.6577 100.096 40.2476 99.0749 40.6719C98.0607 41.0895 96.8908 41.2983 95.565 41.2983C93.5432 41.2983 91.9324 40.8774 90.7326 40.0355C89.5394 39.187 88.8401 38.0336 88.6346 36.5753L92.8008 36.3565C92.9267 36.973 93.2317 37.4437 93.7156 37.7685C94.1995 38.0866 94.8193 38.2457 95.5749 38.2457C96.3174 38.2457 96.914 38.1032 97.3647 37.8182C97.8221 37.5265 98.0541 37.152 98.0607 36.6946C98.0541 36.3101 97.8917 35.9953 97.5735 35.75C97.2553 35.4981 96.7648 35.3059 96.1019 35.1733L93.457 34.6463C91.9656 34.348 90.8552 33.831 90.1261 33.0952C89.4035 32.3594 89.0423 31.4214 89.0423 30.2812C89.0423 29.3002 89.3074 28.455 89.8377 27.7457C90.3747 27.0365 91.127 26.4896 92.0948 26.1051C93.0693 25.7206 94.2094 25.5284 95.5153 25.5284C97.4443 25.5284 98.9622 25.9361 100.069 26.7514C101.183 27.5668 101.833 28.6771 102.018 30.0824ZM107.648 46.7273C107.112 46.7273 106.608 46.6842 106.137 46.598C105.673 46.5185 105.289 46.4157 104.984 46.2898L105.938 43.1278C106.435 43.2803 106.883 43.3632 107.281 43.3764C107.685 43.3897 108.033 43.2969 108.325 43.098C108.623 42.8991 108.865 42.5611 109.05 42.0838L109.299 41.4375L103.82 25.7273H108.275L111.437 36.9432H111.596L114.788 25.7273H119.272L113.336 42.6506C113.051 43.4725 112.663 44.1884 112.173 44.7983C111.689 45.4148 111.076 45.8887 110.333 46.2202C109.591 46.5582 108.696 46.7273 107.648 46.7273Z" fill="#FED700"/>
<path d="M135.778 41H128.56V20.6364H135.838C137.886 20.6364 139.65 21.044 141.128 21.8594C142.606 22.6681 143.743 23.8314 144.538 25.3494C145.34 26.8674 145.741 28.6837 145.741 30.7983C145.741 32.9195 145.34 34.7424 144.538 36.267C143.743 37.7917 142.599 38.9616 141.108 39.777C139.623 40.5923 137.847 41 135.778 41ZM132.865 37.3111H135.599C136.872 37.3111 137.943 37.0857 138.811 36.6349C139.686 36.1776 140.342 35.4716 140.78 34.517C141.224 33.5559 141.446 32.3163 141.446 30.7983C141.446 29.2936 141.224 28.0639 140.78 27.1094C140.342 26.1548 139.689 25.4522 138.821 25.0014C137.953 24.5507 136.882 24.3253 135.609 24.3253H132.865V37.3111ZM155.811 41.2983C154.24 41.2983 152.888 40.9801 151.755 40.3438C150.628 39.7008 149.759 38.7926 149.149 37.6193C148.54 36.4394 148.235 35.044 148.235 33.4332C148.235 31.8622 148.54 30.4834 149.149 29.2969C149.759 28.1103 150.618 27.1856 151.725 26.5227C152.838 25.8598 154.144 25.5284 155.642 25.5284C156.65 25.5284 157.588 25.6908 158.456 26.0156C159.331 26.3338 160.094 26.8144 160.743 27.4574C161.399 28.1004 161.91 28.9091 162.274 29.8835C162.639 30.8513 162.821 31.9848 162.821 33.2841V34.4474H149.925V31.8224H158.834C158.834 31.2126 158.702 30.6723 158.436 30.2017C158.171 29.7311 157.803 29.3632 157.333 29.098C156.869 28.8262 156.328 28.6903 155.712 28.6903C155.069 28.6903 154.499 28.8395 154.002 29.1378C153.511 29.4295 153.127 29.8239 152.848 30.321C152.57 30.8116 152.427 31.3584 152.421 31.9616V34.4574C152.421 35.2131 152.56 35.866 152.838 36.4162C153.123 36.9664 153.524 37.3906 154.042 37.6889C154.559 37.9872 155.172 38.1364 155.881 38.1364C156.352 38.1364 156.783 38.0701 157.174 37.9375C157.565 37.8049 157.899 37.6061 158.178 37.3409C158.456 37.0758 158.668 36.7509 158.814 36.3665L162.732 36.625C162.533 37.5663 162.125 38.3883 161.509 39.0909C160.899 39.7869 160.11 40.3305 159.142 40.7216C158.181 41.1061 157.071 41.2983 155.811 41.2983ZM169.941 41.2884C168.966 41.2884 168.098 41.1193 167.336 40.7812C166.573 40.4366 165.97 39.9295 165.526 39.2599C165.088 38.5838 164.87 37.742 164.87 36.7344C164.87 35.8859 165.025 35.1733 165.337 34.5966C165.649 34.0199 166.073 33.5559 166.61 33.2045C167.147 32.8532 167.757 32.5881 168.439 32.4091C169.129 32.2301 169.851 32.1042 170.607 32.0312C171.495 31.9384 172.211 31.8523 172.755 31.7727C173.298 31.6866 173.693 31.5606 173.938 31.3949C174.183 31.2292 174.306 30.9839 174.306 30.6591V30.5994C174.306 29.9697 174.107 29.4825 173.709 29.1378C173.318 28.7931 172.761 28.6207 172.039 28.6207C171.276 28.6207 170.67 28.7898 170.219 29.1278C169.768 29.4593 169.47 29.8769 169.324 30.3807L165.407 30.0625C165.605 29.1345 165.997 28.3324 166.58 27.6562C167.163 26.9735 167.916 26.4498 168.837 26.0852C169.765 25.714 170.839 25.5284 172.059 25.5284C172.907 25.5284 173.719 25.6278 174.495 25.8267C175.277 26.0256 175.97 26.3338 176.573 26.7514C177.183 27.169 177.663 27.706 178.015 28.3622C178.366 29.0118 178.542 29.7907 178.542 30.6989V41H174.524V38.8821H174.405C174.16 39.3594 173.832 39.7803 173.421 40.1449C173.01 40.5028 172.516 40.7846 171.939 40.9901C171.363 41.1889 170.696 41.2884 169.941 41.2884ZM171.154 38.3651C171.777 38.3651 172.327 38.2424 172.804 37.9972C173.282 37.7453 173.656 37.4072 173.928 36.983C174.2 36.5587 174.336 36.0781 174.336 35.5412V33.9205C174.203 34.0066 174.021 34.0862 173.789 34.1591C173.563 34.2254 173.308 34.2884 173.023 34.348C172.738 34.401 172.453 34.4508 172.168 34.4972C171.883 34.5369 171.624 34.5734 171.392 34.6065C170.895 34.6795 170.461 34.7955 170.09 34.9545C169.719 35.1136 169.43 35.3291 169.225 35.6009C169.019 35.866 168.917 36.1974 168.917 36.5952C168.917 37.1719 169.125 37.6127 169.543 37.9176C169.967 38.2159 170.504 38.3651 171.154 38.3651ZM186.064 20.6364V41H181.828V20.6364H186.064Z" fill="#3A5585"/>
</svg>
