<svg width="201" height="47" viewBox="0 0 201 47" fill="none" xmlns="http://www.w3.org/2000/svg">
<path d="M0.938989 1.92263C-2.38802 0.0117966 4.59397 1.1215 4.59397 1.1215L12.5522 38.6482L8.86272 39.7316C8.86272 39.7316 4.26599 3.83346 0.938989 1.92263Z" fill="#FED700"/>
<path d="M8.51709 34.6544C11.5934 27.8801 20.0939 43.6552 46.0001 34.6544V41.5708L12.1601 40.3865L8.51709 34.6544Z" fill="#FED700"/>
<rect x="24.0703" y="9.09521" width="8.49484" height="5.27487" fill="#FED700"/>
<rect x="25.3984" y="18.3623" width="7.16752" height="5.27487" fill="#FED700"/>
<rect x="24.0703" y="27.6289" width="8.49484" height="5.27487" fill="#FED700"/>
<path d="M33.738 32.9035C35.1934 32.9162 36.6368 32.6208 37.986 32.0343C39.3351 31.4477 40.5635 30.5815 41.6009 29.4851C42.6384 28.3887 43.4646 27.0835 44.0324 25.6441C44.6003 24.2047 44.8986 22.6593 44.9104 21.0961C44.9221 19.5329 44.6471 17.9825 44.101 16.5334C43.555 15.0843 42.7485 13.765 41.7277 12.6507C40.7069 11.5364 39.4917 10.649 38.1516 10.0391C36.8115 9.42916 35.3727 9.10874 33.9173 9.0961L33.8662 15.8761C34.4926 15.8815 35.112 16.0195 35.6888 16.282C36.2656 16.5445 36.7886 16.9265 37.228 17.4061C37.6674 17.8857 38.0145 18.4536 38.2496 19.0773C38.4846 19.7011 38.603 20.3684 38.5979 21.0413C38.5929 21.7141 38.4645 22.3793 38.2201 22.9989C37.9756 23.6184 37.62 24.1802 37.1735 24.6521C36.7269 25.1241 36.1982 25.4969 35.6175 25.7494C35.0368 26.0018 34.4155 26.129 33.789 26.1235L33.738 32.9035Z" fill="white"/>
<rect x="20" y="9.09521" width="4.11469" height="23.8082" fill="#FED700"/>
<path d="M53.1422 41V20.6364H66.8638V24.1861H57.4476V29.0384H66.1579V32.5881H57.4476V37.4503H66.9036V41H53.1422ZM74.5623 41.2884C73.5879 41.2884 72.7195 41.1193 71.9572 40.7812C71.1949 40.4366 70.5917 39.9295 70.1476 39.2599C69.7101 38.5838 69.4913 37.742 69.4913 36.7344C69.4913 35.8859 69.6471 35.1733 69.9586 34.5966C70.2702 34.0199 70.6944 33.5559 71.2314 33.2045C71.7683 32.8532 72.3781 32.5881 73.0609 32.4091C73.7503 32.2301 74.4728 32.1042 75.2285 32.0312C76.1168 31.9384 76.8327 31.8523 77.3763 31.7727C77.9198 31.6866 78.3142 31.5606 78.5595 31.3949C78.8048 31.2292 78.9274 30.9839 78.9274 30.6591V30.5994C78.9274 29.9697 78.7285 29.4825 78.3308 29.1378C77.9397 28.7931 77.3829 28.6207 76.6603 28.6207C75.898 28.6207 75.2915 28.7898 74.8407 29.1278C74.39 29.4593 74.0917 29.8769 73.9459 30.3807L70.0282 30.0625C70.2271 29.1345 70.6182 28.3324 71.2015 27.6562C71.7849 26.9735 72.5372 26.4498 73.4586 26.0852C74.3867 25.714 75.4605 25.5284 76.6802 25.5284C77.5287 25.5284 78.3407 25.6278 79.1163 25.8267C79.8985 26.0256 80.5912 26.3338 81.1944 26.7514C81.8043 27.169 82.2849 27.706 82.6362 28.3622C82.9875 29.0118 83.1632 29.7907 83.1632 30.6989V41H79.1461V38.8821H79.0268C78.7816 39.3594 78.4534 39.7803 78.0424 40.1449C77.6315 40.5028 77.1376 40.7846 76.5609 40.9901C75.9842 41.1889 75.318 41.2884 74.5623 41.2884ZM75.7754 38.3651C76.3985 38.3651 76.9487 38.2424 77.426 37.9972C77.9032 37.7453 78.2778 37.4072 78.5495 36.983C78.8213 36.5587 78.9572 36.0781 78.9572 35.5412V33.9205C78.8246 34.0066 78.6424 34.0862 78.4103 34.1591C78.185 34.2254 77.9298 34.2884 77.6447 34.348C77.3597 34.401 77.0746 34.4508 76.7896 34.4972C76.5046 34.5369 76.246 34.5734 76.014 34.6065C75.5169 34.6795 75.0827 34.7955 74.7115 34.9545C74.3403 35.1136 74.0519 35.3291 73.8464 35.6009C73.6409 35.866 73.5382 36.1974 73.5382 36.5952C73.5382 37.1719 73.747 37.6127 74.1646 37.9176C74.5888 38.2159 75.1258 38.3651 75.7754 38.3651ZM99.1568 30.0824L95.279 30.321C95.2127 29.9896 95.0701 29.6913 94.8514 29.4261C94.6326 29.1544 94.3443 28.9389 93.9863 28.7798C93.635 28.6141 93.2141 28.5312 92.7236 28.5312C92.0673 28.5312 91.5138 28.6705 91.063 28.9489C90.6123 29.2206 90.3869 29.5852 90.3869 30.0426C90.3869 30.4072 90.5327 30.7154 90.8244 30.9673C91.1161 31.2192 91.6165 31.4214 92.3258 31.5739L95.09 32.1307C96.5749 32.4356 97.6819 32.9261 98.4111 33.6023C99.1402 34.2784 99.5048 35.1667 99.5048 36.267C99.5048 37.268 99.2098 38.1463 98.6199 38.902C98.0365 39.6577 97.2344 40.2476 96.2136 40.6719C95.1994 41.0895 94.0294 41.2983 92.7037 41.2983C90.6819 41.2983 89.0711 40.8774 87.8713 40.0355C86.6781 39.187 85.9788 38.0336 85.7733 36.5753L89.9395 36.3565C90.0654 36.973 90.3703 37.4437 90.8542 37.7685C91.3381 38.0866 91.9579 38.2457 92.7136 38.2457C93.456 38.2457 94.0526 38.1032 94.5034 37.8182C94.9608 37.5265 95.1928 37.152 95.1994 36.6946C95.1928 36.3101 95.0304 35.9953 94.7122 35.75C94.394 35.4981 93.9035 35.3059 93.2406 35.1733L90.5957 34.6463C89.1042 34.348 87.9939 33.831 87.2647 33.0952C86.5422 32.3594 86.1809 31.4214 86.1809 30.2812C86.1809 29.3002 86.4461 28.455 86.9764 27.7457C87.5133 27.0365 88.2657 26.4896 89.2335 26.1051C90.2079 25.7206 91.3481 25.5284 92.654 25.5284C94.5829 25.5284 96.1009 25.9361 97.2079 26.7514C98.3216 27.5668 98.9712 28.6771 99.1568 30.0824ZM104.787 46.7273C104.25 46.7273 103.746 46.6842 103.276 46.598C102.812 46.5185 102.427 46.4157 102.122 46.2898L103.077 43.1278C103.574 43.2803 104.021 43.3632 104.419 43.3764C104.824 43.3897 105.172 43.2969 105.463 43.098C105.762 42.8991 106.004 42.5611 106.189 42.0838L106.438 41.4375L100.959 25.7273H105.414L108.575 36.9432H108.735L111.926 25.7273H116.411L110.475 42.6506C110.19 43.4725 109.802 44.1884 109.311 44.7983C108.827 45.4148 108.214 45.8887 107.472 46.2202C106.729 46.5582 105.834 46.7273 104.787 46.7273Z" fill="#FED700"/>
<path d="M132.917 41H125.698V20.6364H132.977C135.025 20.6364 136.788 21.044 138.267 21.8594C139.745 22.6681 140.882 23.8314 141.677 25.3494C142.479 26.8674 142.88 28.6837 142.88 30.7983C142.88 32.9195 142.479 34.7424 141.677 36.267C140.882 37.7917 139.738 38.9616 138.247 39.777C136.762 40.5923 134.985 41 132.917 41ZM130.004 37.3111H132.738C134.011 37.3111 135.081 37.0857 135.95 36.6349C136.825 36.1776 137.481 35.4716 137.918 34.517C138.363 33.5559 138.585 32.3163 138.585 30.7983C138.585 29.2936 138.363 28.0639 137.918 27.1094C137.481 26.1548 136.828 25.4522 135.96 25.0014C135.091 24.5507 134.021 24.3253 132.748 24.3253H130.004V37.3111ZM152.95 41.2983C151.379 41.2983 150.027 40.9801 148.893 40.3438C147.766 39.7008 146.898 38.7926 146.288 37.6193C145.678 36.4394 145.373 35.044 145.373 33.4332C145.373 31.8622 145.678 30.4834 146.288 29.2969C146.898 28.1103 147.756 27.1856 148.863 26.5227C149.977 25.8598 151.283 25.5284 152.781 25.5284C153.789 25.5284 154.727 25.6908 155.595 26.0156C156.47 26.3338 157.232 26.8144 157.882 27.4574C158.538 28.1004 159.049 28.9091 159.413 29.8835C159.778 30.8513 159.96 31.9848 159.96 33.2841V34.4474H147.064V31.8224H155.973C155.973 31.2126 155.84 30.6723 155.575 30.2017C155.31 29.7311 154.942 29.3632 154.471 29.098C154.007 28.8262 153.467 28.6903 152.851 28.6903C152.208 28.6903 151.638 28.8395 151.14 29.1378C150.65 29.4295 150.265 29.8239 149.987 30.321C149.709 30.8116 149.566 31.3584 149.559 31.9616V34.4574C149.559 35.2131 149.699 35.866 149.977 36.4162C150.262 36.9664 150.663 37.3906 151.18 37.6889C151.697 37.9872 152.31 38.1364 153.02 38.1364C153.49 38.1364 153.921 38.0701 154.312 37.9375C154.703 37.8049 155.038 37.6061 155.317 37.3409C155.595 37.0758 155.807 36.7509 155.953 36.3665L159.871 36.625C159.672 37.5663 159.264 38.3883 158.648 39.0909C158.038 39.7869 157.249 40.3305 156.281 40.7216C155.32 41.1061 154.21 41.2983 152.95 41.2983ZM167.079 41.2884C166.105 41.2884 165.237 41.1193 164.474 40.7812C163.712 40.4366 163.109 39.9295 162.665 39.2599C162.227 38.5838 162.008 37.742 162.008 36.7344C162.008 35.8859 162.164 35.1733 162.476 34.5966C162.787 34.0199 163.211 33.5559 163.748 33.2045C164.285 32.8532 164.895 32.5881 165.578 32.4091C166.267 32.2301 166.99 32.1042 167.746 32.0312C168.634 31.9384 169.35 31.8523 169.893 31.7727C170.437 31.6866 170.831 31.5606 171.077 31.3949C171.322 31.2292 171.444 30.9839 171.444 30.6591V30.5994C171.444 29.9697 171.246 29.4825 170.848 29.1378C170.457 28.7931 169.9 28.6207 169.177 28.6207C168.415 28.6207 167.809 28.7898 167.358 29.1278C166.907 29.4593 166.609 29.8769 166.463 30.3807L162.545 30.0625C162.744 29.1345 163.135 28.3324 163.719 27.6562C164.302 26.9735 165.054 26.4498 165.976 26.0852C166.904 25.714 167.978 25.5284 169.197 25.5284C170.046 25.5284 170.858 25.6278 171.633 25.8267C172.416 26.0256 173.108 26.3338 173.711 26.7514C174.321 27.169 174.802 27.706 175.153 28.3622C175.505 29.0118 175.68 29.7907 175.68 30.6989V41H171.663V38.8821H171.544C171.299 39.3594 170.97 39.7803 170.559 40.1449C170.148 40.5028 169.655 40.7846 169.078 40.9901C168.501 41.1889 167.835 41.2884 167.079 41.2884ZM168.292 38.3651C168.916 38.3651 169.466 38.2424 169.943 37.9972C170.42 37.7453 170.795 37.4072 171.067 36.983C171.338 36.5587 171.474 36.0781 171.474 35.5412V33.9205C171.342 34.0066 171.159 34.0862 170.927 34.1591C170.702 34.2254 170.447 34.2884 170.162 34.348C169.877 34.401 169.592 34.4508 169.307 34.4972C169.022 34.5369 168.763 34.5734 168.531 34.6065C168.034 34.6795 167.6 34.7955 167.229 34.9545C166.857 35.1136 166.569 35.3291 166.363 35.6009C166.158 35.866 166.055 36.1974 166.055 36.5952C166.055 37.1719 166.264 37.6127 166.682 37.9176C167.106 38.2159 167.643 38.3651 168.292 38.3651ZM183.202 20.6364V41H178.966V20.6364H183.202ZM199.303 30.0824L195.425 30.321C195.359 29.9896 195.216 29.6913 194.997 29.4261C194.779 29.1544 194.49 28.9389 194.132 28.7798C193.781 28.6141 193.36 28.5312 192.869 28.5312C192.213 28.5312 191.66 28.6705 191.209 28.9489C190.758 29.2206 190.533 29.5852 190.533 30.0426C190.533 30.4072 190.679 30.7154 190.97 30.9673C191.262 31.2192 191.762 31.4214 192.472 31.5739L195.236 32.1307C196.721 32.4356 197.828 32.9261 198.557 33.6023C199.286 34.2784 199.651 35.1667 199.651 36.267C199.651 37.268 199.356 38.1463 198.766 38.902C198.182 39.6577 197.38 40.2476 196.36 40.6719C195.345 41.0895 194.175 41.2983 192.85 41.2983C190.828 41.2983 189.217 40.8774 188.017 40.0355C186.824 39.187 186.125 38.0336 185.919 36.5753L190.085 36.3565C190.211 36.973 190.516 37.4437 191 37.7685C191.484 38.0866 192.104 38.2457 192.86 38.2457C193.602 38.2457 194.199 38.1032 194.649 37.8182C195.107 37.5265 195.339 37.152 195.345 36.6946C195.339 36.3101 195.176 35.9953 194.858 35.75C194.54 35.4981 194.049 35.3059 193.387 35.1733L190.742 34.6463C189.25 34.348 188.14 33.831 187.411 33.0952C186.688 32.3594 186.327 31.4214 186.327 30.2812C186.327 29.3002 186.592 28.455 187.122 27.7457C187.659 27.0365 188.412 26.4896 189.379 26.1051C190.354 25.7206 191.494 25.5284 192.8 25.5284C194.729 25.5284 196.247 25.9361 197.354 26.7514C198.467 27.5668 199.117 28.6771 199.303 30.0824Z" fill="white"/>
<path d="M16.7785 40.8512C16.7785 42.1732 15.7308 43.2025 14.4903 43.2025C13.2499 43.2025 12.2021 42.1732 12.2021 40.8512C12.2021 39.5292 13.2499 38.5 14.4903 38.5C15.7308 38.5 16.7785 39.5292 16.7785 40.8512Z" fill="white" stroke="white" stroke-width="3"/>
<circle cx="14.5" cy="41.0029" r="1.5" fill="#FED700"/>
<path d="M44.0764 40.8512C44.0764 42.1732 43.0287 43.2025 41.7882 43.2025C40.5477 43.2025 39.5 42.1732 39.5 40.8512C39.5 39.5292 40.5477 38.5 41.7882 38.5C43.0287 38.5 44.0764 39.5292 44.0764 40.8512Z" fill="white" stroke="white" stroke-width="3"/>
<circle cx="41.7979" cy="41.0029" r="1.5" fill="#FED700"/>
</svg>
