<svg width="202" height="47" viewBox="0 0 202 47" fill="none" xmlns="http://www.w3.org/2000/svg">
<path d="M0.938989 1.92263C-2.38802 0.0117966 4.59397 1.1215 4.59397 1.1215L12.5522 38.6482L8.86272 39.7316C8.86272 39.7316 4.26599 3.83346 0.938989 1.92263Z" fill="#FED700"/>
<path d="M8.51709 34.6544C11.5934 27.8801 20.0939 43.6552 46.0001 34.6544V41.5708L12.1601 40.3865L8.51709 34.6544Z" fill="#FED700"/>
<rect x="24.0703" y="9.09521" width="8.49484" height="5.27487" fill="#FED700"/>
<rect x="25.3984" y="18.3623" width="7.16752" height="5.27487" fill="#FED700"/>
<rect x="24.0703" y="27.6289" width="8.49484" height="5.27487" fill="#FED700"/>
<path d="M33.738 32.9035C35.1934 32.9162 36.6368 32.6208 37.986 32.0343C39.3351 31.4477 40.5635 30.5815 41.6009 29.4851C42.6384 28.3887 43.4646 27.0835 44.0324 25.6441C44.6003 24.2047 44.8986 22.6593 44.9104 21.0961C44.9221 19.5329 44.6471 17.9825 44.101 16.5334C43.555 15.0843 42.7485 13.765 41.7277 12.6507C40.7069 11.5364 39.4917 10.649 38.1516 10.0391C36.8115 9.42916 35.3727 9.10874 33.9173 9.0961L33.8662 15.8761C34.4926 15.8815 35.112 16.0195 35.6888 16.282C36.2656 16.5445 36.7886 16.9265 37.228 17.4061C37.6674 17.8857 38.0145 18.4536 38.2496 19.0773C38.4846 19.7011 38.603 20.3684 38.5979 21.0413C38.5929 21.7141 38.4645 22.3793 38.2201 22.9989C37.9756 23.6184 37.62 24.1802 37.1735 24.6521C36.7269 25.1241 36.1982 25.4969 35.6175 25.7494C35.0368 26.0018 34.4155 26.129 33.789 26.1235L33.738 32.9035Z" fill="#3A5585"/>
<rect x="20" y="9.09521" width="4.11469" height="23.8082" fill="#FED700"/>
<path d="M53.6422 41V20.6364H67.3638V24.1861H57.9476V29.0384H66.6579V32.5881H57.9476V37.4503H67.4036V41H53.6422ZM75.0623 41.2884C74.0879 41.2884 73.2195 41.1193 72.4572 40.7812C71.6949 40.4366 71.0917 39.9295 70.6476 39.2599C70.2101 38.5838 69.9913 37.742 69.9913 36.7344C69.9913 35.8859 70.1471 35.1733 70.4586 34.5966C70.7702 34.0199 71.1944 33.5559 71.7314 33.2045C72.2683 32.8532 72.8781 32.5881 73.5609 32.4091C74.2503 32.2301 74.9728 32.1042 75.7285 32.0312C76.6168 31.9384 77.3327 31.8523 77.8763 31.7727C78.4198 31.6866 78.8142 31.5606 79.0595 31.3949C79.3048 31.2292 79.4274 30.9839 79.4274 30.6591V30.5994C79.4274 29.9697 79.2285 29.4825 78.8308 29.1378C78.4397 28.7931 77.8829 28.6207 77.1603 28.6207C76.398 28.6207 75.7915 28.7898 75.3407 29.1278C74.89 29.4593 74.5917 29.8769 74.4459 30.3807L70.5282 30.0625C70.7271 29.1345 71.1182 28.3324 71.7015 27.6562C72.2849 26.9735 73.0372 26.4498 73.9586 26.0852C74.8867 25.714 75.9605 25.5284 77.1802 25.5284C78.0287 25.5284 78.8407 25.6278 79.6163 25.8267C80.3985 26.0256 81.0912 26.3338 81.6944 26.7514C82.3043 27.169 82.7849 27.706 83.1362 28.3622C83.4875 29.0118 83.6632 29.7907 83.6632 30.6989V41H79.6461V38.8821H79.5268C79.2816 39.3594 78.9534 39.7803 78.5424 40.1449C78.1315 40.5028 77.6376 40.7846 77.0609 40.9901C76.4842 41.1889 75.818 41.2884 75.0623 41.2884ZM76.2754 38.3651C76.8985 38.3651 77.4487 38.2424 77.926 37.9972C78.4032 37.7453 78.7778 37.4072 79.0495 36.983C79.3213 36.5587 79.4572 36.0781 79.4572 35.5412V33.9205C79.3246 34.0066 79.1424 34.0862 78.9103 34.1591C78.685 34.2254 78.4298 34.2884 78.1447 34.348C77.8597 34.401 77.5746 34.4508 77.2896 34.4972C77.0046 34.5369 76.746 34.5734 76.514 34.6065C76.0169 34.6795 75.5827 34.7955 75.2115 34.9545C74.8403 35.1136 74.5519 35.3291 74.3464 35.6009C74.1409 35.866 74.0382 36.1974 74.0382 36.5952C74.0382 37.1719 74.247 37.6127 74.6646 37.9176C75.0888 38.2159 75.6258 38.3651 76.2754 38.3651ZM99.6568 30.0824L95.779 30.321C95.7127 29.9896 95.5701 29.6913 95.3514 29.4261C95.1326 29.1544 94.8443 28.9389 94.4863 28.7798C94.135 28.6141 93.7141 28.5312 93.2236 28.5312C92.5673 28.5312 92.0138 28.6705 91.563 28.9489C91.1123 29.2206 90.8869 29.5852 90.8869 30.0426C90.8869 30.4072 91.0327 30.7154 91.3244 30.9673C91.6161 31.2192 92.1165 31.4214 92.8258 31.5739L95.59 32.1307C97.0749 32.4356 98.1819 32.9261 98.9111 33.6023C99.6402 34.2784 100.005 35.1667 100.005 36.267C100.005 37.268 99.7098 38.1463 99.1199 38.902C98.5365 39.6577 97.7344 40.2476 96.7136 40.6719C95.6994 41.0895 94.5294 41.2983 93.2037 41.2983C91.1819 41.2983 89.5711 40.8774 88.3713 40.0355C87.1781 39.187 86.4788 38.0336 86.2733 36.5753L90.4395 36.3565C90.5654 36.973 90.8703 37.4437 91.3542 37.7685C91.8381 38.0866 92.4579 38.2457 93.2136 38.2457C93.956 38.2457 94.5526 38.1032 95.0034 37.8182C95.4608 37.5265 95.6928 37.152 95.6994 36.6946C95.6928 36.3101 95.5304 35.9953 95.2122 35.75C94.894 35.4981 94.4035 35.3059 93.7406 35.1733L91.0957 34.6463C89.6042 34.348 88.4939 33.831 87.7647 33.0952C87.0422 32.3594 86.6809 31.4214 86.6809 30.2812C86.6809 29.3002 86.9461 28.455 87.4764 27.7457C88.0133 27.0365 88.7657 26.4896 89.7335 26.1051C90.7079 25.7206 91.8481 25.5284 93.154 25.5284C95.0829 25.5284 96.6009 25.9361 97.7079 26.7514C98.8216 27.5668 99.4712 28.6771 99.6568 30.0824ZM105.287 46.7273C104.75 46.7273 104.246 46.6842 103.776 46.598C103.312 46.5185 102.927 46.4157 102.622 46.2898L103.577 43.1278C104.074 43.2803 104.521 43.3632 104.919 43.3764C105.324 43.3897 105.672 43.2969 105.963 43.098C106.262 42.8991 106.504 42.5611 106.689 42.0838L106.938 41.4375L101.459 25.7273H105.914L109.075 36.9432H109.235L112.426 25.7273H116.911L110.975 42.6506C110.69 43.4725 110.302 44.1884 109.811 44.7983C109.327 45.4148 108.714 45.8887 107.972 46.2202C107.229 46.5582 106.334 46.7273 105.287 46.7273Z" fill="#FED700"/>
<path d="M133.417 41H126.198V20.6364H133.477C135.525 20.6364 137.288 21.044 138.767 21.8594C140.245 22.6681 141.382 23.8314 142.177 25.3494C142.979 26.8674 143.38 28.6837 143.38 30.7983C143.38 32.9195 142.979 34.7424 142.177 36.267C141.382 37.7917 140.238 38.9616 138.747 39.777C137.262 40.5923 135.485 41 133.417 41ZM130.504 37.3111H133.238C134.511 37.3111 135.581 37.0857 136.45 36.6349C137.325 36.1776 137.981 35.4716 138.418 34.517C138.863 33.5559 139.085 32.3163 139.085 30.7983C139.085 29.2936 138.863 28.0639 138.418 27.1094C137.981 26.1548 137.328 25.4522 136.46 25.0014C135.591 24.5507 134.521 24.3253 133.248 24.3253H130.504V37.3111ZM153.45 41.2983C151.879 41.2983 150.527 40.9801 149.393 40.3438C148.266 39.7008 147.398 38.7926 146.788 37.6193C146.178 36.4394 145.873 35.044 145.873 33.4332C145.873 31.8622 146.178 30.4834 146.788 29.2969C147.398 28.1103 148.256 27.1856 149.363 26.5227C150.477 25.8598 151.783 25.5284 153.281 25.5284C154.289 25.5284 155.227 25.6908 156.095 26.0156C156.97 26.3338 157.732 26.8144 158.382 27.4574C159.038 28.1004 159.549 28.9091 159.913 29.8835C160.278 30.8513 160.46 31.9848 160.46 33.2841V34.4474H147.564V31.8224H156.473C156.473 31.2126 156.34 30.6723 156.075 30.2017C155.81 29.7311 155.442 29.3632 154.971 29.098C154.507 28.8262 153.967 28.6903 153.351 28.6903C152.708 28.6903 152.138 28.8395 151.64 29.1378C151.15 29.4295 150.765 29.8239 150.487 30.321C150.209 30.8116 150.066 31.3584 150.059 31.9616V34.4574C150.059 35.2131 150.199 35.866 150.477 36.4162C150.762 36.9664 151.163 37.3906 151.68 37.6889C152.197 37.9872 152.81 38.1364 153.52 38.1364C153.99 38.1364 154.421 38.0701 154.812 37.9375C155.203 37.8049 155.538 37.6061 155.817 37.3409C156.095 37.0758 156.307 36.7509 156.453 36.3665L160.371 36.625C160.172 37.5663 159.764 38.3883 159.148 39.0909C158.538 39.7869 157.749 40.3305 156.781 40.7216C155.82 41.1061 154.71 41.2983 153.45 41.2983ZM167.579 41.2884C166.605 41.2884 165.737 41.1193 164.974 40.7812C164.212 40.4366 163.609 39.9295 163.165 39.2599C162.727 38.5838 162.508 37.742 162.508 36.7344C162.508 35.8859 162.664 35.1733 162.976 34.5966C163.287 34.0199 163.711 33.5559 164.248 33.2045C164.785 32.8532 165.395 32.5881 166.078 32.4091C166.767 32.2301 167.49 32.1042 168.246 32.0312C169.134 31.9384 169.85 31.8523 170.393 31.7727C170.937 31.6866 171.331 31.5606 171.577 31.3949C171.822 31.2292 171.944 30.9839 171.944 30.6591V30.5994C171.944 29.9697 171.746 29.4825 171.348 29.1378C170.957 28.7931 170.4 28.6207 169.677 28.6207C168.915 28.6207 168.309 28.7898 167.858 29.1278C167.407 29.4593 167.109 29.8769 166.963 30.3807L163.045 30.0625C163.244 29.1345 163.635 28.3324 164.219 27.6562C164.802 26.9735 165.554 26.4498 166.476 26.0852C167.404 25.714 168.478 25.5284 169.697 25.5284C170.546 25.5284 171.358 25.6278 172.133 25.8267C172.916 26.0256 173.608 26.3338 174.211 26.7514C174.821 27.169 175.302 27.706 175.653 28.3622C176.005 29.0118 176.18 29.7907 176.18 30.6989V41H172.163V38.8821H172.044C171.799 39.3594 171.47 39.7803 171.059 40.1449C170.648 40.5028 170.155 40.7846 169.578 40.9901C169.001 41.1889 168.335 41.2884 167.579 41.2884ZM168.792 38.3651C169.416 38.3651 169.966 38.2424 170.443 37.9972C170.92 37.7453 171.295 37.4072 171.567 36.983C171.838 36.5587 171.974 36.0781 171.974 35.5412V33.9205C171.842 34.0066 171.659 34.0862 171.427 34.1591C171.202 34.2254 170.947 34.2884 170.662 34.348C170.377 34.401 170.092 34.4508 169.807 34.4972C169.522 34.5369 169.263 34.5734 169.031 34.6065C168.534 34.6795 168.1 34.7955 167.729 34.9545C167.357 35.1136 167.069 35.3291 166.863 35.6009C166.658 35.866 166.555 36.1974 166.555 36.5952C166.555 37.1719 166.764 37.6127 167.182 37.9176C167.606 38.2159 168.143 38.3651 168.792 38.3651ZM183.702 20.6364V41H179.466V20.6364H183.702ZM199.803 30.0824L195.925 30.321C195.859 29.9896 195.716 29.6913 195.497 29.4261C195.279 29.1544 194.99 28.9389 194.632 28.7798C194.281 28.6141 193.86 28.5312 193.369 28.5312C192.713 28.5312 192.16 28.6705 191.709 28.9489C191.258 29.2206 191.033 29.5852 191.033 30.0426C191.033 30.4072 191.179 30.7154 191.47 30.9673C191.762 31.2192 192.262 31.4214 192.972 31.5739L195.736 32.1307C197.221 32.4356 198.328 32.9261 199.057 33.6023C199.786 34.2784 200.151 35.1667 200.151 36.267C200.151 37.268 199.856 38.1463 199.266 38.902C198.682 39.6577 197.88 40.2476 196.86 40.6719C195.845 41.0895 194.675 41.2983 193.35 41.2983C191.328 41.2983 189.717 40.8774 188.517 40.0355C187.324 39.187 186.625 38.0336 186.419 36.5753L190.585 36.3565C190.711 36.973 191.016 37.4437 191.5 37.7685C191.984 38.0866 192.604 38.2457 193.36 38.2457C194.102 38.2457 194.699 38.1032 195.149 37.8182C195.607 37.5265 195.839 37.152 195.845 36.6946C195.839 36.3101 195.676 35.9953 195.358 35.75C195.04 35.4981 194.549 35.3059 193.887 35.1733L191.242 34.6463C189.75 34.348 188.64 33.831 187.911 33.0952C187.188 32.3594 186.827 31.4214 186.827 30.2812C186.827 29.3002 187.092 28.455 187.622 27.7457C188.159 27.0365 188.912 26.4896 189.879 26.1051C190.854 25.7206 191.994 25.5284 193.3 25.5284C195.229 25.5284 196.747 25.9361 197.854 26.7514C198.967 27.5668 199.617 28.6771 199.803 30.0824Z" fill="#3A5585"/>
<path d="M16.7785 40.8512C16.7785 42.1732 15.7308 43.2025 14.4903 43.2025C13.2499 43.2025 12.2021 42.1732 12.2021 40.8512C12.2021 39.5292 13.2499 38.5 14.4903 38.5C15.7308 38.5 16.7785 39.5292 16.7785 40.8512Z" fill="white" stroke="#3A5585" stroke-width="3"/>
<circle cx="14.5" cy="41.0029" r="1.5" fill="white"/>
<path d="M44.0764 40.8512C44.0764 42.1732 43.0287 43.2025 41.7882 43.2025C40.5477 43.2025 39.5 42.1732 39.5 40.8512C39.5 39.5292 40.5477 38.5 41.7882 38.5C43.0287 38.5 44.0764 39.5292 44.0764 40.8512Z" fill="white" stroke="#3A5585" stroke-width="3"/>
<circle cx="41.7979" cy="41.0029" r="1.5" fill="white"/>
</svg>
