<svg width="46" height="45" viewBox="0 0 46 45" fill="none" xmlns="http://www.w3.org/2000/svg">
<path d="M0.938989 1.92263C-2.38802 0.0117966 4.59397 1.1215 4.59397 1.1215L12.5522 38.6482L8.86272 39.7316C8.86272 39.7316 4.26599 3.83346 0.938989 1.92263Z" fill="#FED700"/>
<path d="M8.51709 34.6544C11.5934 27.8801 20.0939 43.6552 46.0001 34.6544V41.5708L12.1601 40.3865L8.51709 34.6544Z" fill="#FED700"/>
<rect x="24.0703" y="9.09521" width="8.49484" height="5.27487" fill="#FED700"/>
<rect x="25.3984" y="18.3623" width="7.16752" height="5.27487" fill="#FED700"/>
<rect x="24.0703" y="27.6289" width="8.49484" height="5.27487" fill="#FED700"/>
<path d="M33.738 32.9035C35.1934 32.9162 36.6368 32.6208 37.986 32.0343C39.3351 31.4477 40.5635 30.5815 41.6009 29.4851C42.6384 28.3887 43.4646 27.0835 44.0324 25.6441C44.6003 24.2047 44.8986 22.6593 44.9104 21.0961C44.9221 19.5329 44.6471 17.9825 44.101 16.5334C43.555 15.0843 42.7485 13.765 41.7277 12.6507C40.7069 11.5364 39.4917 10.649 38.1516 10.0391C36.8115 9.42916 35.3727 9.10874 33.9173 9.0961L33.8662 15.8761C34.4926 15.8815 35.112 16.0195 35.6888 16.282C36.2656 16.5445 36.7886 16.9265 37.228 17.4061C37.6674 17.8857 38.0145 18.4536 38.2496 19.0773C38.4846 19.7011 38.603 20.3684 38.5979 21.0413C38.5929 21.7141 38.4645 22.3793 38.2201 22.9989C37.9756 23.6184 37.62 24.1802 37.1735 24.6521C36.7269 25.1241 36.1982 25.4969 35.6175 25.7494C35.0368 26.0018 34.4155 26.129 33.789 26.1235L33.738 32.9035Z" fill="#3A5585"/>
<rect x="20" y="9.09521" width="4.11469" height="23.8082" fill="#FED700"/>
<path d="M16.7785 40.8512C16.7785 42.1732 15.7308 43.2025 14.4903 43.2025C13.2499 43.2025 12.2021 42.1732 12.2021 40.8512C12.2021 39.5292 13.2499 38.5 14.4903 38.5C15.7308 38.5 16.7785 39.5292 16.7785 40.8512Z" fill="white" stroke="#3A5585" stroke-width="3"/>
<circle cx="14.5" cy="41.0029" r="1.5" fill="white"/>
<path d="M44.0764 40.8512C44.0764 42.1732 43.0287 43.2025 41.7882 43.2025C40.5477 43.2025 39.5 42.1732 39.5 40.8512C39.5 39.5292 40.5477 38.5 41.7882 38.5C43.0287 38.5 44.0764 39.5292 44.0764 40.8512Z" fill="white" stroke="#3A5585" stroke-width="3"/>
<circle cx="41.7979" cy="41.0029" r="1.5" fill="white"/>
</svg>
