<svg width="160" height="36" viewBox="0 0 160 36" fill="none" xmlns="http://www.w3.org/2000/svg">
<path d="M40.264 27C39.896 27 39.576 26.864 39.304 26.592C39.032 26.32 38.896 26 38.896 25.632V10.848C38.896 10.48 39.032 10.16 39.304 9.888C39.576 9.616 39.896 9.48 40.264 9.48H48.424C48.792 9.48 49.112 9.616 49.384 9.888C49.656 10.16 49.792 10.48 49.792 10.848C49.792 11.216 49.656 11.536 49.384 11.808C49.112 12.064 48.792 12.192 48.424 12.192H42.472C42.328 12.192 42.256 12.264 42.256 12.408V16.272C42.256 16.416 42.328 16.488 42.472 16.488H48.016C48.384 16.488 48.688 16.616 48.928 16.872C49.184 17.128 49.312 17.432 49.312 17.784C49.312 18.136 49.184 18.44 48.928 18.696C48.688 18.936 48.384 19.056 48.016 19.056H42.472C42.328 19.056 42.256 19.128 42.256 19.272V24.072C42.256 24.216 42.328 24.288 42.472 24.288H48.424C48.792 24.288 49.112 24.424 49.384 24.696C49.656 24.952 49.792 25.264 49.792 25.632C49.792 26 49.656 26.32 49.384 26.592C49.112 26.864 48.792 27 48.424 27H40.264ZM58.9735 21C56.6855 21 55.5415 21.704 55.5415 23.112C55.5415 23.624 55.6855 24.04 55.9735 24.36C56.2775 24.68 56.6615 24.84 57.1255 24.84C58.0375 24.84 58.7735 24.56 59.3335 24C59.8935 23.424 60.1735 22.64 60.1735 21.648V21.216C60.1735 21.072 60.1015 21 59.9575 21H58.9735ZM56.2615 27.24C55.1735 27.24 54.2695 26.888 53.5495 26.184C52.8455 25.464 52.4935 24.536 52.4935 23.4C52.4935 22.008 53.0215 20.928 54.0775 20.16C55.1495 19.392 56.7815 19.008 58.9735 19.008H59.9575C60.1015 19.008 60.1735 18.936 60.1735 18.792V18.6C60.1735 17.864 59.9975 17.352 59.6455 17.064C59.2935 16.76 58.6695 16.608 57.7735 16.608C56.8455 16.608 55.7095 16.776 54.3655 17.112C54.0775 17.192 53.8135 17.144 53.5735 16.968C53.3335 16.776 53.2135 16.528 53.2135 16.224C53.2135 15.856 53.3255 15.528 53.5495 15.24C53.7735 14.936 54.0615 14.752 54.4135 14.688C55.6295 14.416 56.7735 14.28 57.8455 14.28C59.8935 14.28 61.3255 14.648 62.1415 15.384C62.9575 16.12 63.3655 17.408 63.3655 19.248V25.632C63.3655 26 63.2295 26.32 62.9575 26.592C62.7015 26.864 62.3895 27 62.0215 27H61.7575C61.3735 27 61.0455 26.872 60.7735 26.616C60.5015 26.344 60.3575 26.016 60.3415 25.632V25.296C60.3415 25.28 60.3335 25.272 60.3175 25.272C60.2855 25.272 60.2695 25.28 60.2695 25.296C59.2935 26.592 57.9575 27.24 56.2615 27.24ZM70.6083 21.96C68.9283 21.592 67.7283 21.088 67.0083 20.448C66.3043 19.808 65.9523 18.976 65.9523 17.952C65.9523 16.8 66.3763 15.904 67.2243 15.264C68.0883 14.608 69.3603 14.28 71.0403 14.28C72.0963 14.28 73.1443 14.376 74.1843 14.568C74.5363 14.632 74.8163 14.808 75.0243 15.096C75.2483 15.368 75.3603 15.688 75.3603 16.056C75.3603 16.36 75.2403 16.608 75.0003 16.8C74.7603 16.976 74.4883 17.024 74.1843 16.944C73.2883 16.72 72.3443 16.608 71.3523 16.608C69.9123 16.608 69.1923 17.008 69.1923 17.808C69.1923 18.192 69.3283 18.512 69.6003 18.768C69.8723 19.024 70.3363 19.224 70.9922 19.368C72.8323 19.736 74.0883 20.232 74.7603 20.856C75.4483 21.48 75.7923 22.392 75.7923 23.592C75.7923 24.744 75.3603 25.64 74.4963 26.28C73.6323 26.92 72.3763 27.24 70.7283 27.24C69.6563 27.24 68.5603 27.112 67.4403 26.856C67.0883 26.776 66.8003 26.592 66.5763 26.304C66.3523 26 66.2402 25.656 66.2402 25.272C66.2402 24.968 66.3602 24.736 66.6003 24.576C66.8563 24.416 67.1283 24.376 67.4163 24.456C68.4563 24.744 69.4403 24.888 70.3683 24.888C71.8243 24.888 72.5523 24.456 72.5523 23.592C72.5523 23.176 72.4083 22.848 72.1203 22.608C71.8483 22.368 71.3443 22.152 70.6083 21.96ZM81.5986 26.808L77.6146 15.792C77.5186 15.472 77.5586 15.184 77.7346 14.928C77.9106 14.656 78.1666 14.52 78.5026 14.52H79.2226C79.6226 14.52 79.9906 14.648 80.3266 14.904C80.6626 15.144 80.8786 15.456 80.9746 15.84L83.2066 23.688C83.2066 23.704 83.2146 23.712 83.2306 23.712C83.2466 23.712 83.2546 23.704 83.2546 23.688L85.8226 15.816C85.9506 15.432 86.1826 15.12 86.5186 14.88C86.8546 14.64 87.2226 14.52 87.6226 14.52H88.1986C88.5346 14.52 88.7906 14.656 88.9666 14.928C89.1586 15.2 89.1906 15.488 89.0626 15.792L83.2066 31.008C83.0626 31.392 82.8226 31.696 82.4866 31.92C82.1506 32.16 81.7746 32.28 81.3586 32.28H80.7826C80.4626 32.28 80.2066 32.144 80.0146 31.872C79.8386 31.616 79.8146 31.336 79.9426 31.032L81.5986 27.192C81.6306 27.128 81.6466 27.064 81.6466 27C81.6466 26.936 81.6306 26.872 81.5986 26.808ZM101.74 12.264V24.216C101.74 24.328 101.804 24.4 101.932 24.432C102.444 24.512 102.924 24.552 103.372 24.552C105.244 24.552 106.62 24.048 107.5 23.04C108.38 22.016 108.82 20.336 108.82 18C108.82 15.904 108.372 14.368 107.476 13.392C106.58 12.416 105.212 11.928 103.372 11.928C102.924 11.928 102.444 11.968 101.932 12.048C101.804 12.08 101.74 12.152 101.74 12.264ZM99.7718 27.072C99.3718 27.024 99.0438 26.856 98.7878 26.568C98.5318 26.264 98.4038 25.912 98.4038 25.512V10.968C98.4038 10.568 98.5318 10.224 98.7878 9.936C99.0438 9.632 99.3718 9.456 99.7718 9.408C100.796 9.296 101.94 9.24 103.204 9.24C106.052 9.24 108.228 9.984 109.732 11.472C111.252 12.96 112.012 15.136 112.012 18C112.012 21.072 111.252 23.384 109.732 24.936C108.228 26.472 106.052 27.24 103.204 27.24C101.94 27.24 100.796 27.184 99.7718 27.072ZM119.564 16.512C118.748 16.512 118.116 16.744 117.668 17.208C117.236 17.656 116.964 18.384 116.852 19.392C116.852 19.52 116.916 19.584 117.044 19.584H121.748C121.876 19.584 121.94 19.52 121.94 19.392C121.876 17.472 121.084 16.512 119.564 16.512ZM120.164 27.24C118.068 27.24 116.452 26.696 115.316 25.608C114.196 24.504 113.636 22.888 113.636 20.76C113.636 18.648 114.14 17.04 115.148 15.936C116.156 14.832 117.612 14.28 119.516 14.28C123.068 14.28 124.892 16.296 124.988 20.328C125.004 20.712 124.868 21.032 124.58 21.288C124.292 21.544 123.956 21.672 123.572 21.672H117.02C116.876 21.672 116.82 21.744 116.852 21.888C116.964 22.96 117.316 23.744 117.908 24.24C118.516 24.72 119.396 24.96 120.548 24.96C121.268 24.96 122.068 24.84 122.948 24.6C123.236 24.52 123.5 24.568 123.74 24.744C123.996 24.92 124.124 25.16 124.124 25.464C124.124 25.832 124.012 26.16 123.788 26.448C123.58 26.72 123.3 26.888 122.948 26.952C122.052 27.144 121.124 27.24 120.164 27.24ZM133.458 21C131.17 21 130.026 21.704 130.026 23.112C130.026 23.624 130.17 24.04 130.458 24.36C130.762 24.68 131.146 24.84 131.61 24.84C132.522 24.84 133.258 24.56 133.818 24C134.378 23.424 134.658 22.64 134.658 21.648V21.216C134.658 21.072 134.586 21 134.442 21H133.458ZM130.746 27.24C129.658 27.24 128.754 26.888 128.034 26.184C127.33 25.464 126.978 24.536 126.978 23.4C126.978 22.008 127.506 20.928 128.562 20.16C129.634 19.392 131.266 19.008 133.458 19.008H134.442C134.586 19.008 134.658 18.936 134.658 18.792V18.6C134.658 17.864 134.482 17.352 134.13 17.064C133.778 16.76 133.154 16.608 132.258 16.608C131.33 16.608 130.194 16.776 128.85 17.112C128.562 17.192 128.298 17.144 128.058 16.968C127.818 16.776 127.698 16.528 127.698 16.224C127.698 15.856 127.81 15.528 128.034 15.24C128.258 14.936 128.546 14.752 128.898 14.688C130.114 14.416 131.258 14.28 132.33 14.28C134.378 14.28 135.81 14.648 136.626 15.384C137.442 16.12 137.85 17.408 137.85 19.248V25.632C137.85 26 137.714 26.32 137.442 26.592C137.186 26.864 136.874 27 136.506 27H136.242C135.858 27 135.53 26.872 135.258 26.616C134.986 26.344 134.842 26.016 134.826 25.632V25.296C134.826 25.28 134.818 25.272 134.802 25.272C134.77 25.272 134.754 25.28 134.754 25.296C133.778 26.592 132.442 27.24 130.746 27.24ZM143.119 27C142.751 27 142.431 26.864 142.159 26.592C141.887 26.32 141.751 26 141.751 25.632V10.368C141.751 10 141.887 9.68 142.159 9.408C142.431 9.136 142.751 9 143.119 9H143.743C144.111 9 144.431 9.136 144.703 9.408C144.975 9.68 145.111 10 145.111 10.368V25.632C145.111 26 144.975 26.32 144.703 26.592C144.431 26.864 144.111 27 143.743 27H143.119ZM153.436 21.96C151.756 21.592 150.556 21.088 149.836 20.448C149.132 19.808 148.78 18.976 148.78 17.952C148.78 16.8 149.204 15.904 150.052 15.264C150.916 14.608 152.188 14.28 153.868 14.28C154.924 14.28 155.972 14.376 157.012 14.568C157.364 14.632 157.644 14.808 157.852 15.096C158.076 15.368 158.188 15.688 158.188 16.056C158.188 16.36 158.068 16.608 157.828 16.8C157.588 16.976 157.316 17.024 157.012 16.944C156.116 16.72 155.172 16.608 154.18 16.608C152.74 16.608 152.02 17.008 152.02 17.808C152.02 18.192 152.156 18.512 152.428 18.768C152.7 19.024 153.164 19.224 153.82 19.368C155.66 19.736 156.916 20.232 157.588 20.856C158.276 21.48 158.62 22.392 158.62 23.592C158.62 24.744 158.188 25.64 157.324 26.28C156.46 26.92 155.204 27.24 153.556 27.24C152.484 27.24 151.388 27.112 150.268 26.856C149.916 26.776 149.628 26.592 149.404 26.304C149.18 26 149.068 25.656 149.068 25.272C149.068 24.968 149.188 24.736 149.428 24.576C149.684 24.416 149.956 24.376 150.244 24.456C151.284 24.744 152.268 24.888 153.196 24.888C154.652 24.888 155.38 24.456 155.38 23.592C155.38 23.176 155.236 22.848 154.948 22.608C154.676 22.368 154.172 22.152 153.436 21.96Z" fill="white"/>
<path d="M8.304 9.30134L6.77334 7.73334H4.84267L4.14934 10.1493H6.032L6.21867 10.6453L8.86934 10.7893L8.304 9.30134Z" fill="white"/>
<path d="M10.624 15.4453L8.06934 15.5466L9.504 19.3493L11.1467 16.8213L10.624 15.4453Z" fill="white"/>
<path d="M8.86933 10.7893L6.21866 10.6453L8.06933 15.5467L10.624 15.4453L8.86933 10.7893Z" fill="white"/>
<path d="M8.00533 8.51734C7.82933 8.048 7.376 7.73334 6.86933 7.73334H6.77333L8.304 9.30134L8.00533 8.51734Z" fill="white"/>
<path d="M1.216 7.73334C0.544 7.73334 0 8.272 0 8.93867C0 9.60534 0.544 10.144 1.216 10.144H2.944L1.61067 7.73334H1.216Z" fill="white"/>
<path d="M1.61067 7.73334L2.94401 10.1493H4.14934L4.84267 7.73334H1.61067Z" fill="white"/>
<path d="M11.1467 16.8214L9.504 19.3494L9.86666 20.304H12.4587L11.1467 16.8214Z" fill="white"/>
<path d="M13.712 10.7307C13.3173 10.7307 12.9493 10.9173 12.7253 11.2373C12.496 11.5573 12.4373 11.9627 12.5653 12.3307L15.0507 19.456L16.7573 16.992L15.4133 13.1413H16.0267L14.7093 10.7253H13.712V10.7307Z" fill="white"/>
<path d="M15.344 20.304H17.76C17.792 20.112 17.776 19.9093 17.7067 19.712L16.7573 16.9973L15.0507 19.4613L15.344 20.304Z" fill="white"/>
<path d="M15.4133 20.5067C15.632 21.136 16.3253 21.472 16.96 21.2533C17.3973 21.104 17.6907 20.7307 17.76 20.3093H15.344L15.4133 20.5067Z" fill="white"/>
<path d="M14.7147 10.7307L16.032 13.1467H18.8533L19.7227 10.7307H14.7147Z" fill="white"/>
<path d="M12.4587 20.304H9.86667L11.3973 24.3627C11.488 24.5974 11.6427 24.7947 11.84 24.928L13.3493 22.672L12.4587 20.304Z" fill="white"/>
<path d="M30.6613 10.7307H26.08L24.464 13.1467H29.184L28.7627 15.248L31.536 11.104C31.3067 10.8693 30.992 10.7307 30.6613 10.7307Z" fill="white"/>
<path d="M31.6 11.1733C31.5787 11.152 31.5573 11.1307 31.536 11.104L28.7627 15.248L28.6613 15.7493L30.5387 18.7573L31.8507 12.176C31.92 11.8187 31.8293 11.4507 31.6 11.1733Z" fill="white"/>
<path d="M20.32 10.7307L21.5787 13.1467H24.464L26.08 10.7307H20.32Z" fill="white"/>
<path d="M19.7227 10.7307L18.8533 13.1467H21.5787L20.32 10.7307H19.7227Z" fill="white"/>
<path d="M16.0373 22.7307L17.4773 25.1467H23.04L21.6693 22.7307H16.0373Z" fill="white"/>
<path d="M21.6693 22.7307L23.04 25.1467H23.3227L24.4907 22.7307H21.6693Z" fill="white"/>
<path d="M13.376 22.7306L13.3547 22.6773L11.8453 24.9333C12.0427 25.072 12.2827 25.1466 12.5387 25.1466H17.4827L16.0427 22.7306H13.376Z" fill="white"/>
<path d="M24.4907 22.7307L23.328 25.1467H28.272C28.3467 25.1467 28.4213 25.1413 28.4907 25.1253L27.088 22.7307H24.4907Z" fill="white"/>
<path d="M27.7653 20.2667L30.256 20.1867L30.5387 18.7573L28.6613 15.7493L27.7653 20.2667Z" fill="white"/>
<path d="M27.7653 20.2667L27.2747 22.7307H27.088L28.4907 25.1254C28.5707 25.1094 28.6453 25.088 28.72 25.0614C29.0933 24.912 29.3813 24.5867 29.4613 24.176L29.6533 23.2L30.2507 20.1867L27.7653 20.2667Z" fill="white"/>
<path d="M22.592 18.2346C23.248 18.2346 23.872 18.0693 24.416 17.7866L23.7387 16.7733C23.392 16.9333 23.0027 17.0293 22.592 17.0293C22.384 17.0293 22.1867 17.0026 21.9947 16.96L21.504 18.08C21.8453 18.176 22.2133 18.2346 22.592 18.2346Z" fill="white"/>
<path d="M21.4987 18.08L21.9893 16.96C21.1573 16.7734 20.4747 16.2027 20.128 15.4507L19.152 16.208C19.648 17.104 20.4907 17.7867 21.4987 18.08Z" fill="white"/>
<path d="M26.512 14.3307H25.296C25.296 15.408 24.656 16.336 23.7333 16.768L24.4107 17.7814C25.6587 17.1307 26.512 15.8294 26.512 14.3307Z" fill="white"/>
<path d="M19.888 14.3307H18.672C18.672 15.008 18.848 15.648 19.152 16.2027L20.128 15.4454C19.9733 15.1094 19.888 14.7307 19.888 14.3307Z" fill="white"/>
<path d="M16.688 30.4586C16.688 30.1013 16.576 29.776 16.384 29.504L15.344 32.0853C16.112 31.936 16.688 31.264 16.688 30.4586Z" fill="white"/>
<path d="M13.3547 30.4587C13.3547 31.3653 14.0853 32.1013 14.992 32.1173L13.6 29.6053C13.4453 29.856 13.3547 30.1493 13.3547 30.4587Z" fill="white"/>
<path d="M15.024 28.8C14.416 28.8 13.888 29.12 13.6 29.6053L14.992 32.1173C15.0027 32.1173 15.0133 32.1173 15.024 32.1173C15.136 32.1173 15.2427 32.1067 15.3493 32.0853L16.3893 29.504C16.0853 29.0827 15.584 28.8 15.024 28.8Z" fill="white"/>
<path d="M27.264 30.4587C27.264 29.5413 26.5173 28.8 25.5947 28.8C25.3173 28.8 25.056 28.8693 24.8267 28.9867L26.464 31.872C26.944 31.584 27.264 31.0613 27.264 30.4587Z" fill="white"/>
<path d="M23.9307 30.4587C23.9307 31.376 24.6773 32.1174 25.6 32.1174C25.92 32.1174 26.2133 32.0267 26.4693 31.872L24.832 28.9867C24.2933 29.2694 23.9307 29.8187 23.9307 30.4587Z" fill="white"/>
</svg>
